<svg width="22" height="22" viewBox="0 0 22 22" fill="none" xmlns="http://www.w3.org/2000/svg">
<path d="M14.2838 14.3487C14.8077 14.5234 15.3741 14.2402 15.5487 13.7163C15.7234 13.1923 15.4402 12.626 14.9163 12.4513L14.2838 14.3487ZM11 12.2H10C10 12.6305 10.2755 13.0126 10.6838 13.1487L11 12.2ZM12 7.18228C12 6.63 11.5523 6.18228 11 6.18228C10.4477 6.18228 10 6.63 10 7.18228H12ZM14.9163 12.4513L11.3163 11.2513L10.6838 13.1487L14.2838 14.3487L14.9163 12.4513ZM12 12.2V7.18228H10V12.2H12ZM19.6 11C19.6 15.7497 15.7497 19.6 11 19.6V21.6C16.8542 21.6 21.6 16.8542 21.6 11H19.6ZM11 19.6C6.25037 19.6 2.40002 15.7497 2.40002 11H0.400024C0.400024 16.8542 5.14581 21.6 11 21.6V19.6ZM2.40002 11C2.40002 6.25037 6.25037 2.40002 11 2.40002V0.400024C5.14581 0.400024 0.400024 5.14581 0.400024 11H2.40002ZM11 2.40002C15.7497 2.40002 19.6 6.25037 19.6 11H21.6C21.6 5.14581 16.8542 0.400024 11 0.400024V2.40002Z" fill="white"/>
</svg>
