<svg width="22" height="18" viewBox="0 0 22 18" fill="none" xmlns="http://www.w3.org/2000/svg">
<path d="M18.2 10.6857C19.4674 11.6326 20.6 14.0166 20.6 15.4856C20.6 15.9432 20.2661 16.3142 19.8543 16.3142H19.4M14.6 6.80444C15.4199 6.33018 15.9715 5.44377 15.9715 4.42853C15.9715 3.41328 15.4199 2.52687 14.6 2.05261M2.14579 16.3142H15.2828C15.6947 16.3142 16.0286 15.9432 16.0286 15.4856C16.0286 12.609 13.6253 10.2771 8.71431 10.2771C3.80329 10.2771 1.40002 12.609 1.40002 15.4856C1.40002 15.9432 1.73392 16.3142 2.14579 16.3142ZM11.4572 4.42853C11.4572 5.94336 10.2291 7.17138 8.71431 7.17138C7.19947 7.17138 5.97145 5.94336 5.97145 4.42853C5.97145 2.91369 7.19947 1.68567 8.71431 1.68567C10.2291 1.68567 11.4572 2.91369 11.4572 4.42853Z" stroke="white" stroke-width="2" stroke-linecap="round"/>
</svg>
